<svg id="Layer_1" data-name="Layer 1" xmlns="http://www.w3.org/2000/svg" xmlns:xlink="http://www.w3.org/1999/xlink" viewBox="0 0 1445.69 1445.69"><defs><style>.cls-1,.cls-2{fill-rule:evenodd;}.cls-1{fill:url(#linear-gradient);}.cls-2{fill:#fefefe;}</style><linearGradient id="linear-gradient" x1="722.84" y1="92.77" x2="722.84" y2="1317.97" gradientUnits="userSpaceOnUse"><stop offset="0" stop-color="#4e6abd"/><stop offset="1" stop-color="#3e51a0"/></linearGradient></defs><title>FB</title><path class="cls-1" d="M318.28,0h809.14c174.79,0,318.27,143.42,318.27,318.12v808.73c0,175.43-143.48,318.84-318.27,318.84H318.28C142.76,1445.69,0,1302.28,0,1126.85V318.12C0,143.42,142.76,0,318.28,0Z"/><path class="cls-2" d="M792.4,559.06V489.18c0-33.48,22.57-41.49,38.61-41.49H928.6V298.46H793.87c-149.32,0-182.82,110.65-182.82,182v78.61H524.39V733h87.4v434.57H785.84V733H914.76l5.82-68.43,10.2-105.55Z"/></svg>