<svg id="Layer_1" data-name="Layer 1" xmlns="http://www.w3.org/2000/svg" xmlns:xlink="http://www.w3.org/1999/xlink" viewBox="0 0 1445.7 1445.69"><defs><style>.cls-1{fill:url(#linear-gradient);}.cls-2{fill:#fff;}</style><linearGradient id="linear-gradient" x1="1077.79" y1="84.85" x2="345.51" y2="1401.11" gradientUnits="userSpaceOnUse"><stop offset="0" stop-color="#4845a2"/><stop offset="0.19" stop-color="#8744a1"/><stop offset="0.3" stop-color="#a844a1"/><stop offset="0.35" stop-color="#ab429a"/><stop offset="0.42" stop-color="#b43c88"/><stop offset="0.51" stop-color="#c33269"/><stop offset="0.6" stop-color="#d7243f"/><stop offset="0.6" stop-color="#d7243e"/><stop offset="0.88" stop-color="#f9a326"/><stop offset="1" stop-color="#f9dd26"/></linearGradient></defs><title>IG</title><path class="cls-1" d="M1445.7,338.83v768c0,187.13-151.7,338.83-338.85,338.83h-768C151.71,1445.69,0,1294,0,1106.86v-768C0,151.71,151.71,0,338.83,0h768C1294,0,1445.7,151.71,1445.7,338.83Z"/><path class="cls-2" d="M946.05,193.57H497.85c-169,0-306,137-306,306V947.79c0,169,137,306,306,306h448.2c169,0,306-137,306-306V499.6c0-169-137-306-306-306m208.38,762.1c0,112.2-91,203.13-203.14,203.13H492.61c-112.18,0-203.13-90.93-203.13-203.13V497c0-112.2,90.95-203.13,203.13-203.13H951.29c112.19,0,203.14,90.93,203.14,203.13Z"/><path class="cls-2" d="M722,451.24c-151.93,0-275.1,123.15-275.1,275.09S570,1001.43,722,1001.43s275.1-123.17,275.1-275.1S873.88,451.24,722,451.24m0,453.42A178.33,178.33,0,1,1,900.28,726.33,178.33,178.33,0,0,1,722,904.66"/></svg>