<?xml version="1.0" encoding="utf-8"?>
<!-- Generator: Adobe Illustrator 16.0.0, SVG Export Plug-In . SVG Version: 6.00 Build 0)  -->
<!DOCTYPE svg PUBLIC "-//W3C//DTD SVG 1.1//EN" "http://www.w3.org/Graphics/SVG/1.1/DTD/svg11.dtd">
<svg version="1.1" id="Capa_1" xmlns="http://www.w3.org/2000/svg" xmlns:xlink="http://www.w3.org/1999/xlink" x="0px" y="0px"
	 width="1024px" height="768px" viewBox="0 0 1024 768" enable-background="new 0 0 1024 768" xml:space="preserve">
<path fill="#5DC3C1" d="M512.15,211.5c-95.4,0-172.351,76.95-172.351,172.35c0,95.4,76.95,172.35,172.351,172.35
	c95.399,0,172.35-76.949,172.35-172.35C684.5,288.45,607.55,211.5,512.15,211.5z M512.15,495.9c-61.65,0-112.05-50.25-112.05-112.05
	S450.35,271.8,512.15,271.8c61.8,0,112.05,50.25,112.05,112.05S573.8,495.9,512.15,495.9z M731.75,204.45
	c0,22.35-18,40.199-40.2,40.199c-22.35,0-40.2-18-40.2-40.199c0-22.2,18-40.2,40.2-40.2S731.75,182.25,731.75,204.45z M845.9,245.25
	C843.35,191.4,831.05,143.7,791.6,104.4c-39.3-39.3-87-51.6-140.85-54.3c-55.5-3.149-221.85-3.149-277.35,0
	C319.7,52.65,272,64.95,232.55,104.25c-39.45,39.3-51.6,87-54.3,140.85c-3.15,55.5-3.15,221.85,0,277.35
	C180.8,576.3,193.1,624,232.55,663.3c39.45,39.3,87,51.6,140.85,54.3c55.5,3.15,221.85,3.15,277.35,0
	c53.85-2.55,101.55-14.85,140.85-54.3c39.301-39.301,51.601-87,54.301-140.851C849.05,466.949,849.05,300.749,845.9,245.25
	L845.9,245.25z M774.2,582c-11.7,29.399-34.351,52.05-63.9,63.899c-44.25,17.55-149.25,13.5-198.149,13.5
	c-48.9,0-154.05,3.9-198.15-13.5c-29.4-11.7-52.05-34.35-63.9-63.899c-17.55-44.25-13.5-149.25-13.5-198.15S232.7,229.8,250.1,185.7
	c11.7-29.4,34.35-52.051,63.9-63.9c44.25-17.55,149.25-13.5,198.15-13.5c48.899,0,154.05-3.9,198.149,13.5
	c29.4,11.7,52.05,34.35,63.9,63.9c17.55,44.25,13.5,149.249,13.5,198.149S791.75,537.9,774.2,582z"/>
</svg>
