<?xml version="1.0" encoding="utf-8"?>
<!-- Generator: Adobe Illustrator 16.0.0, SVG Export Plug-In . SVG Version: 6.00 Build 0)  -->
<!DOCTYPE svg PUBLIC "-//W3C//DTD SVG 1.1//EN" "http://www.w3.org/Graphics/SVG/1.1/DTD/svg11.dtd">
<svg version="1.1" id="Capa_1" xmlns="http://www.w3.org/2000/svg" xmlns:xlink="http://www.w3.org/1999/xlink" x="0px" y="0px"
	 width="1024px" height="768px" viewBox="0 0 1024 768" enable-background="new 0 0 1024 768" xml:space="preserve">
<path fill="#5DC3C1" d="M747.35,145.65C684.5,82.65,600.8,48,511.85,48c-183.6,0-333,149.399-333,333
	c0,58.649,15.3,115.949,44.4,166.5L176,720l176.55-46.351c48.6,26.55,103.351,40.5,159.15,40.5h0.149
	c183.45,0,336.15-149.399,336.15-333C848,292.2,810.2,208.65,747.35,145.65z M511.85,658.05c-49.8,0-98.55-13.351-141-38.55
	l-10.05-6l-104.7,27.449L284,538.8l-6.6-10.5c-27.75-44.101-42.3-94.95-42.3-147.3c0-152.55,124.2-276.75,276.9-276.75
	c73.95,0,143.4,28.8,195.6,81.149c52.2,52.351,84.301,121.8,84.15,195.75C791.75,533.85,664.4,658.05,511.85,658.05z M663.65,450.75
	c-8.25-4.2-49.2-24.301-56.851-27c-7.649-2.851-13.2-4.2-18.75,4.199c-5.55,8.4-21.45,27-26.399,32.7c-4.801,5.55-9.75,6.3-18,2.1
	c-48.9-24.449-81-43.649-113.25-99c-8.551-14.699,8.55-13.649,24.449-45.449c2.7-5.551,1.351-10.351-0.75-14.551
	c-2.1-4.199-18.75-45.149-25.649-61.8C421.7,225.75,414.8,228,409.7,227.699c-4.8-0.3-10.35-0.3-15.9-0.3
	c-5.55,0-14.55,2.101-22.2,10.351c-7.65,8.399-29.1,28.5-29.1,69.449c0,40.95,29.85,80.55,33.9,86.101
	c4.2,5.55,58.65,89.55,142.2,125.7c52.801,22.8,73.5,24.75,99.9,20.85c16.05-2.4,49.2-20.1,56.1-39.6
	c6.9-19.5,6.9-36.15,4.801-39.601C677.45,456.9,671.9,454.8,663.65,450.75z"/>
</svg>
